<?xml version="1.0" encoding="utf-8"?>
<!-- Generator: Adobe Illustrator 28.0.0, SVG Export Plug-In . SVG Version: 6.00 Build 0)  -->
<svg version="1.1" id="Layer_1" xmlns="http://www.w3.org/2000/svg" xmlns:xlink="http://www.w3.org/1999/xlink" x="0px" y="0px"
	 viewBox="0 0 540 540" style="enable-background:new 0 0 540 540;" xml:space="preserve">
<style type="text/css">
	.st0{display:none;}
	.st1{display:inline;fill:#666666;}
	.st2{fill:none;}
	.st3{fill:#C33B00;}
</style>
<g id="Layer_2_00000047750619862250748310000003006386826341427328_" class="st0">
	<rect class="st1" width="540" height="540"/>
</g>
<g id="Layer_1_00000126319838461749676640000011668492519649599150_">
	<line class="st2" x1="173.99" y1="213" x2="172.49" y2="212.23"/>
	<polygon class="st3" points="514.92,320.93 460.98,374.87 350.94,374.87 350.94,540 296.97,540 296.97,320.93 	"/>
	<polyline points="171.51,213 171.62,213.1 171.72,213 172.49,212.23 	"/>
	<polygon points="79.4,93.66 79.04,94.81 77.99,94.3 	"/>
	<polygon class="st3" points="296.43,0 296.43,59.11 289.45,62.25 242.48,83.29 236.76,85.85 217.05,94.7 217.02,94.7 205.8,99.73 
		142.14,128.26 122.86,136.9 97.17,217.1 97.73,217.1 97.58,217.54 242.48,217.54 242.48,269 23.95,269 26.81,259.9 40.39,217.54 
		40.59,216.93 60,156.36 59.54,155.34 77.43,98.15 77.46,98.12 78.51,98.63 78.86,97.48 145,67.85 224.9,32.06 242.48,24.19 
		248.62,21.42 	"/>
	<rect x="296.97" y="217.53" class="st3" width="219.09" height="50.21"/>
</g>
</svg>
