<?xml version="1.0" encoding="utf-8"?>
<!-- Generator: Adobe Illustrator 28.0.0, SVG Export Plug-In . SVG Version: 6.00 Build 0)  -->
<svg version="1.1" id="Layer_1" xmlns="http://www.w3.org/2000/svg" xmlns:xlink="http://www.w3.org/1999/xlink" x="0px" y="0px"
	 viewBox="0 0 540 540" style="enable-background:new 0 0 540 540;" xml:space="preserve">
<style type="text/css">
	.st0{display:none;}
	.st1{display:inline;fill:#666666;}
	.st2{fill:none;}
	.st3{fill:#FFFFFF;}
</style>
<g id="Layer_2_00000072239421985538060870000015010180235996297860_" class="st0">
	<rect class="st1" width="540" height="540"/>
</g>
<g id="Layer_1_00000003093107546102593640000011299446922004446337_">
	<line class="st2" x1="164.5" y1="213" x2="163.1" y2="212.2"/>
	<polygon class="st3" points="538.9,320.9 479.7,374.8 359,374.8 359,540 299.5,540 299.5,320.9 	"/>
	<polyline class="st3" points="161.9,213 161.9,213.2 162.2,213 163.1,212.2 	"/>
	<polygon class="st3" points="60.6,93.6 60.3,94.9 59.2,94.3 	"/>
	<polygon class="st3" points="298.9,0 298.9,59.1 291.3,62.4 239.7,83.4 233.5,85.9 211.9,94.6 211.9,94.6 199.6,99.7 129.7,128.4 
		108.3,137 80.3,217.1 80.8,217.1 80.8,217.6 239.7,217.6 239.7,269 0,269 3.1,260 18,217.6 18.2,217.1 39.6,156.5 39,155.5 
		58.7,98.2 58.7,98.2 59.8,98.7 60.1,97.4 132.8,67.8 220.6,32 239.7,24.3 246.4,21.5 	"/>
	<rect x="299.5" y="217.6" class="st3" width="240.5" height="50.1"/>
</g>
</svg>
